<?xml version="1.0" standalone="no"?>
<!DOCTYPE svg PUBLIC "-//W3C//DTD SVG 20010904//EN"
 "http://www.w3.org/TR/2001/REC-SVG-20010904/DTD/svg10.dtd">
<svg version="1.0" xmlns="http://www.w3.org/2000/svg"
 width="936.000000pt" height="936.000000pt" viewBox="0 0 936.000000 936.000000"
 preserveAspectRatio="xMidYMid meet">
<metadata>
Created by potrace 1.11, written by Peter Selinger 2001-2013
</metadata>
<g transform="translate(0.000000,936.000000) scale(0.100000,-0.100000)"
fill="#000000" stroke="none">
<path d="M1352 8320 c-210 -56 -365 -211 -471 -469 -124 -298 -190 -969 -191
-1911 0 -610 22 -1021 76 -1425 56 -417 136 -625 309 -801 102 -104 186 -152
310 -177 l69 -14 62 -364 c194 -1140 411 -1946 609 -2265 69 -109 133 -170
202 -190 157 -46 290 51 418 305 l27 55 32 -54 c45 -77 137 -191 182 -227 72
-56 123 -77 194 -77 137 0 255 100 376 319 l20 37 45 -68 c24 -38 82 -108 129
-155 110 -111 171 -143 287 -148 71 -3 89 0 137 22 69 32 133 85 193 159 l45
57 38 -48 c164 -207 360 -218 534 -29 36 39 66 66 66 60 0 -23 149 -158 206
-187 54 -27 68 -30 159 -30 95 0 103 2 163 34 74 40 201 169 257 261 20 33 39
60 43 60 4 0 27 -35 52 -77 57 -97 158 -202 230 -238 109 -55 220 -35 326 58
47 42 142 164 177 227 l18 33 52 -86 c128 -215 228 -289 363 -272 174 21 313
256 459 770 83 294 231 1018 275 1345 6 47 22 153 35 235 21 129 65 455 65
478 0 4 12 7 26 7 82 0 240 73 328 151 176 158 283 416 335 814 88 669 107
1688 45 2435 -19 232 -60 574 -80 660 -87 386 -250 619 -502 718 -59 23 -82
26 -192 26 -115 1 -136 -2 -265 -37 -77 -22 -230 -63 -340 -93 -110 -30 -206
-61 -214 -68 -12 -12 -6 -42 39 -208 71 -264 129 -481 183 -683 25 -93 73
-271 106 -395 33 -124 65 -244 71 -268 6 -24 17 -45 24 -48 7 -3 90 15 185 40
l171 45 0 -685 c0 -376 -4 -684 -8 -684 -4 0 -82 20 -172 44 -120 33 -168 42
-177 34 -14 -11 -16 -18 -93 -308 -29 -107 -74 -276 -100 -375 -27 -99 -74
-274 -105 -390 -31 -115 -75 -277 -97 -360 -27 -98 -37 -154 -31 -163 8 -14
182 -64 544 -157 97 -25 183 -45 192 -45 12 0 15 -7 12 -27 -3 -16 -23 -163
-46 -328 -22 -165 -49 -349 -60 -410 -11 -60 -33 -193 -50 -295 -71 -431 -199
-966 -294 -1235 -93 -260 -192 -415 -278 -430 -54 -10 -120 26 -178 98 -49 61
-159 254 -159 279 0 9 11 40 24 70 46 103 126 344 175 528 161 599 243 1269
176 1452 -23 65 -93 140 -154 166 -154 67 -326 19 -476 -132 -90 -91 -144
-185 -172 -299 l-16 -68 -29 50 c-147 254 -569 169 -718 -144 -15 -33 -34 -85
-40 -116 l-13 -57 -32 33 c-85 84 -247 63 -424 -56 -173 -115 -312 -300 -346
-459 l-8 -34 -17 54 c-9 30 -32 84 -50 120 -113 223 -371 420 -555 424 -75 1
-120 -17 -150 -62 l-23 -34 -11 38 c-6 22 -11 44 -11 50 0 7 -18 48 -40 91
-63 126 -170 224 -299 274 -82 32 -226 32 -297 1 -57 -26 -112 -78 -142 -135
l-20 -37 -6 33 c-27 142 -140 316 -259 400 -105 74 -157 92 -267 92 -107 0
-148 -15 -207 -77 -81 -84 -105 -204 -84 -414 50 -490 210 -1154 382 -1585 33
-81 59 -152 59 -157 0 -21 -91 -201 -132 -262 -47 -70 -123 -130 -165 -130
-31 0 -92 31 -120 62 -79 84 -196 346 -287 644 -97 316 -207 789 -305 1309
-50 269 -124 707 -119 709 2 1 54 14 116 29 296 74 625 166 632 177 9 15 10
12 -45 215 -45 165 -122 452 -202 750 -24 94 -64 242 -88 330 -24 88 -51 190
-61 227 -9 37 -22 72 -29 78 -10 8 -32 6 -82 -9 -70 -20 -267 -71 -277 -71 -3
0 -6 309 -6 686 0 648 1 685 18 680 23 -7 292 -78 318 -83 36 -8 24 -47 204
622 26 99 72 268 100 375 29 107 76 283 105 390 54 199 56 223 18 233 -10 3
-106 29 -213 57 -107 29 -251 68 -320 87 -162 45 -298 53 -408 23z m1287
-5019 c139 -43 267 -186 315 -353 39 -132 38 -323 -4 -688 -30 -263 -147 -812
-188 -886 -9 -17 -103 238 -167 455 -120 410 -225 981 -228 1236 -1 82 3 108
20 145 47 103 125 131 252 91z m4297 -10 c45 -27 81 -78 95 -135 37 -146 -36
-718 -152 -1196 -49 -204 -132 -482 -172 -573 l-20 -49 -19 49 c-34 91 -118
398 -152 563 -96 455 -127 789 -91 961 37 174 163 333 305 382 65 23 167 22
206 -2z m-3402 -341 c125 -59 211 -169 242 -308 44 -199 -41 -785 -174 -1200
-19 -62 -39 -109 -43 -105 -14 15 -99 221 -149 364 -53 151 -139 451 -165 579
-33 157 -65 388 -65 470 0 94 18 147 63 188 65 61 180 65 291 12z m2583 7 c87
-55 111 -142 93 -342 -33 -378 -163 -912 -299 -1231 l-28 -65 -21 57 c-74 190
-166 552 -213 829 -17 98 -23 173 -23 305 -1 169 0 177 25 230 74 157 223 256
370 246 38 -3 69 -12 96 -29z m-1930 -386 c118 -56 243 -168 317 -283 101
-159 112 -316 45 -673 -19 -105 -105 -384 -132 -433 -13 -23 -14 -22 -39 25
-135 248 -337 963 -364 1282 -4 44 -4 87 -1 95 11 28 102 21 174 -13z m1213
14 c38 -46 -38 -509 -145 -888 -61 -218 -192 -557 -215 -557 -13 0 -82 163
-132 310 -100 299 -132 570 -83 715 54 161 240 352 405 416 58 23 153 25 170
4z m975 -517 c59 -292 147 -614 225 -824 l23 -61 -48 -87 c-45 -82 -117 -181
-160 -219 -39 -34 -94 -57 -138 -57 -94 0 -204 110 -305 304 l-31 59 31 61
c51 100 126 310 184 511 48 165 127 525 150 680 6 46 9 36 30 -117 12 -92 30
-205 39 -250z m-3210 62 c85 -336 203 -669 314 -888 l30 -60 -41 -79 c-168
-320 -309 -367 -481 -158 -55 67 -138 199 -151 243 -5 15 4 59 28 130 39 117
102 366 135 532 24 123 81 511 81 557 0 83 15 56 41 -73 15 -76 34 -168 44
-204z m841 -185 c85 -339 192 -639 296 -836 l41 -77 -34 -48 c-46 -68 -119
-138 -167 -163 -54 -27 -132 -27 -192 0 -61 28 -202 175 -267 280 l-53 84 35
93 c103 274 206 752 231 1077 l7 90 24 -140 c12 -77 48 -239 79 -360z m1540
210 c42 -278 168 -735 257 -936 l16 -36 -46 -79 c-119 -203 -239 -304 -360
-304 -90 0 -179 56 -262 164 l-41 53 59 124 c137 286 254 685 323 1099 13 74
24 122 26 105 2 -16 14 -102 28 -190z m-817 -476 c31 -161 108 -387 182 -536
69 -140 69 -132 -15 -221 -133 -141 -244 -121 -388 67 l-34 45 37 85 c80 187
156 457 175 623 4 32 10 58 13 58 4 0 18 -54 30 -121z"/>
<path d="M4525 8303 c-192 -16 -429 -68 -612 -133 -336 -121 -604 -290 -866
-548 -396 -390 -642 -900 -698 -1446 -17 -169 -7 -488 20 -636 120 -661 486
-1224 1031 -1586 241 -160 532 -285 801 -343 328 -70 755 -66 1064 10 622 152
1151 538 1481 1079 220 362 344 804 344 1229 0 518 -166 1016 -481 1438 -96
129 -338 370 -469 467 -355 263 -761 420 -1209 465 -95 10 -312 12 -406 4z
m97 -392 c3 -158 5 -181 22 -200 30 -33 78 -45 119 -27 59 24 67 52 67 241 l0
165 40 0 c73 0 264 -31 376 -60 456 -121 836 -360 1133 -715 277 -332 455
-766 489 -1197 l8 -98 -166 0 c-192 0 -225 -9 -248 -72 -13 -33 -12 -41 4 -75
29 -58 47 -63 237 -63 l167 0 0 -40 c0 -73 -31 -264 -60 -377 -175 -663 -630
-1189 -1262 -1457 -165 -70 -416 -137 -568 -151 -36 -3 -84 -8 -107 -11 l-42
-5 -3 181 -3 182 -33 29 c-36 32 -77 37 -121 15 -45 -24 -51 -52 -51 -236 0
-94 -3 -170 -7 -170 -49 0 -249 25 -322 40 -430 90 -799 288 -1106 595 -365
365 -574 814 -629 1348 l-6 57 170 0 c187 0 222 8 240 56 23 60 5 115 -47 143
-14 7 -83 11 -193 11 l-172 0 7 78 c60 681 406 1265 973 1645 286 192 729 341
1029 346 l61 1 4 -179z"/>
<path d="M4704 6923 c-12 -2 -32 -15 -45 -29 -23 -25 -24 -32 -30 -242 -4
-119 -7 -330 -8 -467 l-1 -250 -396 -594 c-218 -327 -403 -610 -411 -629 -37
-90 64 -177 146 -126 20 13 172 232 450 649 l419 630 6 484 c5 541 6 540 -58
566 -20 8 -39 14 -43 14 -4 -1 -18 -4 -29 -6z"/>
</g>
</svg>
